<svg xmlns="http://www.w3.org/2000/svg" viewBox="0 0 800 750" font-family="Arial, sans-serif" font-size="13">
  <defs>
    <marker id="arrow2" markerWidth="10" markerHeight="10" refX="9" refY="3" orient="auto" markerUnits="strokeWidth">
      <path d="M0,0 L0,6 L9,3 z" fill="#333"/>
    </marker>
    <style>
      .root-box { fill: #d4edda; stroke: #155724; stroke-width: 2; }
      .active-box { fill: #e8f0fe; stroke: #4a6fa5; stroke-width: 2; }
      .revoked-box { fill: #f8d7da; stroke: #721c09; stroke-width: 2; }
      .suspect-box { fill: #fff3cd; stroke: #856404; stroke-width: 2; }
      .result-box { fill: #f0f4ff; stroke: #4a6fa5; stroke-width: 2; }
      .title { font-size: 16px; font-weight: bold; fill: #1a1a2e; }
      .node-title { font-size: 12px; font-weight: bold; fill: #1a1a2e; }
      .node-detail { font-size: 11px; fill: #555; }
      .arrow-line { stroke: #333; stroke-width: 2; fill: none; }
      .label { font-size: 11px; fill: #555; }
    </style>
  </defs>
  <text x="400" y="30" text-anchor="middle" class="title">SEAI Lineage Tree</text>
  <rect x="250" y="50" width="300" height="80" class="root-box" rx="6"/>
  <text x="400" y="72" text-anchor="middle" class="node-title">seai-bc-00000000 (Root)</text>
  <text x="400" y="90" text-anchor="middle" class="node-detail">Origin: SEAI-LAB-01</text>
  <text x="400" y="105" text-anchor="middle" class="node-detail">Level: 0 (Sandbox) | Status: ACTIVE</text>
  <line x1="400" y1="130" x2="400" y2="160" class="arrow-line" marker-end="url(#arrow2)"/>
  <text x="410" y="150" class="label">birth</text>
  <rect x="250" y="160" width="300" height="80" class="active-box" rx="6"/>
  <text x="400" y="182" text-anchor="middle" class="node-title">seai-bc-00000001</text>
  <text x="400" y="200" text-anchor="middle" class="node-detail">Local Reasoning Agent</text>
  <text x="400" y="215" text-anchor="middle" class="node-detail">Parent: 00000000 | Level: 1 | ACTIVE</text>
  <line x1="400" y1="240" x2="400" y2="270" class="arrow-line" marker-end="url(#arrow2)"/>
  <text x="410" y="260" class="label">birth</text>
  <rect x="250" y="270" width="300" height="80" class="active-box" rx="6"/>
  <text x="400" y="292" text-anchor="middle" class="node-title">seai-bc-00000002</text>
  <text x="400" y="310" text-anchor="middle" class="node-detail">Monitoring/Logging Agent</text>
  <text x="400" y="325" text-anchor="middle" class="node-detail">Parent: 00000001 | Level: 1 | ACTIVE</text>
  <line x1="400" y1="350" x2="400" y2="370" class="arrow-line"/>
  <line x1="200" y1="370" x2="600" y2="370" class="arrow-line"/>
  <line x1="200" y1="370" x2="200" y2="390" class="arrow-line" marker-end="url(#arrow2)"/>
  <line x1="600" y1="370" x2="600" y2="390" class="arrow-line" marker-end="url(#arrow2)"/>
  <text x="300" y="365" class="label">birth</text>
  <text x="500" y="365" class="label">birth</text>
  <rect x="80" y="390" width="240" height="80" class="revoked-box" rx="6"/>
  <text x="200" y="412" text-anchor="middle" class="node-title">seai-bc-00000003</text>
  <text x="200" y="430" text-anchor="middle" class="node-detail">Network Agent</text>
  <text x="200" y="445" text-anchor="middle" class="node-detail">Parent: 00000002 | Level: 2 | REVOKED</text>
  <rect x="480" y="390" width="240" height="80" class="suspect-box" rx="6"/>
  <text x="600" y="412" text-anchor="middle" class="node-title">seai-bc-00000004</text>
  <text x="600" y="430" text-anchor="middle" class="node-detail">Analytics Agent</text>
  <text x="600" y="445" text-anchor="middle" class="node-detail">Parent: 00000002 | Level: 1 | SUSPECT</text>
  <line x1="200" y1="470" x2="200" y2="500" class="arrow-line" marker-end="url(#arrow2)"/>
  <line x1="600" y1="470" x2="600" y2="500" class="arrow-line" marker-end="url(#arrow2)"/>
  <text x="210" y="490" class="label">revocation</text>
  <text x="610" y="490" class="label">cascade flag</text>
  <rect x="100" y="500" width="200" height="70" class="result-box" rx="6"/>
  <text x="200" y="525" text-anchor="middle" class="node-title">REVOCATION</text>
  <text x="200" y="545" text-anchor="middle" class="node-detail">Cannot act, communicate</text>
  <text x="200" y="560" text-anchor="middle" class="node-detail">or impersonate</text>
  <rect x="500" y="500" width="200" height="70" class="result-box" rx="6"/>
  <text x="600" y="525" text-anchor="middle" class="node-title">QUARANTINE</text>
  <text x="600" y="545" text-anchor="middle" class="node-detail">Human review</text>
  <text x="600" y="560" text-anchor="middle" class="node-detail">required</text>
  <text x="400" y="620" text-anchor="middle" class="node-title">Lineage Rules</text>
  <text x="400" y="640" text-anchor="middle" class="node-detail">Every agent has a parent (except root) | Ancestor chain is immutable</text>
  <text x="400" y="655" text-anchor="middle" class="node-detail">Revocation cascades downward | Lineage is verifiable at every action</text>
  <text x="400" y="670" text-anchor="middle" class="node-detail">Origin is permanent</text>
</svg>
